<?xml version="1.0" standalone="no"?>
<!DOCTYPE svg PUBLIC "-//W3C//DTD SVG 20010904//EN"
 "http://www.w3.org/TR/2001/REC-SVG-20010904/DTD/svg10.dtd">
<svg version="1.0" xmlns="http://www.w3.org/2000/svg"
 width="1256.000000pt" height="436.000000pt" viewBox="0 0 1256.000000 436.000000"
 preserveAspectRatio="xMidYMid meet">

<g transform="translate(0.000000,436.000000) scale(0.100000,-0.100000)"
fill="#000000" stroke="none">
<path d="M10395 3359 c-511 -79 -915 -427 -1041 -894 -35 -133 -45 -373 -20
-507 97 -516 505 -912 1035 -1002 120 -20 337 -21 461 -1 422 69 794 356 960
742 228 532 44 1134 -444 1455 -114 75 -158 98 -271 138 -162 57 -243 71 -440
75 -99 2 -207 0 -240 -6z m410 -124 c149 -38 303 -141 394 -262 152 -202 225
-461 224 -803 0 -330 -60 -571 -195 -781 -85 -131 -229 -247 -369 -294 -210
-72 -461 -50 -641 56 -222 131 -370 387 -424 736 -22 145 -22 413 0 556 71
461 304 743 666 806 75 14 272 6 345 -14z"/>
<path d="M750 2155 l0 -1165 195 0 195 0 0 539 0 538 43 -8 c24 -4 111 -13
193 -20 388 -30 635 34 816 212 115 112 168 240 168 404 0 240 -132 443 -363
555 -200 97 -301 110 -844 110 l-403 0 0 -1165z m842 966 c255 -82 397 -346
333 -619 -41 -175 -157 -291 -335 -337 -83 -22 -272 -16 -375 11 l-70 19 -3
479 -2 479 192 -6 c160 -4 204 -8 260 -26z"/>
<path d="M2830 2155 l0 -1165 85 0 85 0 0 946 c0 871 1 945 16 942 11 -2 189
-341 498 -945 l481 -943 40 0 40 0 480 957 480 958 3 -957 2 -958 200 0 200 0
0 1165 0 1165 -198 0 -198 0 -443 -890 c-244 -490 -447 -892 -451 -895 -5 -3
-12 0 -17 7 -4 7 -209 409 -455 893 l-447 880 -200 3 -201 2 0 -1165z"/>
<path d="M6070 2155 l0 -1165 195 0 195 0 0 1165 0 1165 -195 0 -195 0 0
-1165z"/>
<path d="M6874 3313 c2 -5 203 -269 445 -588 243 -319 441 -582 441 -585 0 -3
-218 -260 -485 -572 -267 -312 -485 -570 -485 -573 0 -3 44 -5 98 -5 l99 0
434 509 c268 314 438 506 444 500 6 -4 179 -233 385 -508 l375 -500 233 0
c127 -1 232 1 232 4 0 3 -221 296 -491 651 -270 356 -488 651 -486 658 3 6
197 234 431 508 234 273 426 499 426 502 0 3 -45 6 -99 6 l-99 0 -377 -442
c-208 -244 -380 -444 -384 -445 -3 -1 -157 198 -341 442 l-335 445 -233 0
c-128 0 -231 -3 -228 -7z"/>
</g>
</svg>
